<?xml version="1.0" encoding="iso-8859-1"?>
<!-- Generator: Adobe Illustrator 16.0.0, SVG Export Plug-In . SVG Version: 6.00 Build 0)  -->
<!DOCTYPE svg PUBLIC "-//W3C//DTD SVG 1.1//EN" "http://www.w3.org/Graphics/SVG/1.1/DTD/svg11.dtd">
<svg version="1.1" id="Capa_1" xmlns="http://www.w3.org/2000/svg" xmlns:xlink="http://www.w3.org/1999/xlink" x="0px" y="0px"
	 width="434.325px" height="434.325px" viewBox="0 0 434.325 434.325" style="enable-background:new 0 0 434.325 434.325;"
	 xml:space="preserve">
<g>
	<g>
		<path d="M432.91,99.805l-1.076-0.847c-1.205-0.59-119.59-60.243-213.456-86.608l-1.025-0.308l-1.023,0.333
			c-6.54,1.976-161.138,49.627-214.791,92.431L0,106.012l16.029,187.271l1.462,0.976c1.462,0.998,149.211,99.432,195.887,125.771
			l1.719,0.95l1.744-0.872c0.129-0.078,0.385-0.205,0.563-0.31v2.486c37.007-15.08,78.708-40.266,114.792-64.501
			c45.088-25.826,87.02-52.319,91.711-63.987l0.23-1.076C433.424,168.691,436.398,103.753,432.91,99.805z M217.404,206.672V411.64
			c-0.719,0.359-1.437,0.743-2.129,1.104C169.623,386.686,38.288,299.387,22.952,289.203L7.563,109.267
			c51.755-39.906,196.299-85.428,209.865-89.66c82.556,23.365,183.886,72.375,206.48,83.505
			C327.504,126.938,217.404,206.672,217.404,206.672z"/>
		<path d="M186.68,199.39L25.415,121.476C58.933,164.075,186.68,199.39,186.68,199.39z"/>
	</g>
</g>
<g>
</g>
<g>
</g>
<g>
</g>
<g>
</g>
<g>
</g>
<g>
</g>
<g>
</g>
<g>
</g>
<g>
</g>
<g>
</g>
<g>
</g>
<g>
</g>
<g>
</g>
<g>
</g>
<g>
</g>
</svg>
